<?xml version="1.0" encoding="utf-8" ?>
<svg xmlns="http://www.w3.org/2000/svg" xmlns:xlink="http://www.w3.org/1999/xlink" width="1024" height="1024">
	<path fill="#72B4D2" d="M126.744 948.479C109.133 936.67 92.8401 920.927 80.2227 903.906C62.5658 880.087 50.2409 850.303 46.1957 820.949C44.2196 806.609 44.5292 792.245 44.4036 777.817Q44.0786 749.038 44.1686 720.257L44.4395 543.464L44.2028 324.13L44.1708 259.202C44.1408 241.695 43.3347 224.039 45.8968 206.665Q46.255 204.336 46.6704 202.016Q47.0859 199.696 47.5584 197.387Q48.0309 195.078 48.5601 192.781Q49.0894 190.484 49.6751 188.202Q50.2608 185.919 50.9026 183.651Q51.5443 181.383 52.2418 179.132Q52.9393 176.881 53.692 174.647Q54.4448 172.414 55.2523 170.2Q56.0599 167.985 56.9217 165.792Q57.7836 163.598 58.6993 161.427Q59.6149 159.255 60.5838 157.106Q61.5527 154.958 62.5743 152.834Q63.5959 150.71 64.6694 148.612Q65.743 146.514 66.868 144.443Q67.993 142.372 69.1686 140.329Q70.3443 138.286 71.5699 136.273Q72.7956 134.26 74.0705 132.278Q75.3453 130.296 76.6687 128.345Q77.992 126.395 79.363 124.478Q80.734 122.561 82.1519 120.678Q83.5697 118.796 85.0335 116.949Q86.4973 115.102 88.0062 113.291Q89.5151 111.48 91.0681 109.708Q92.6211 107.935 94.2174 106.201Q95.8136 104.467 97.4521 102.773Q99.0906 101.079 100.77 99.4255Q102.45 97.7723 104.17 96.161Q105.89 94.5497 107.649 92.9812Q109.408 91.4128 111.206 89.8882Q113.003 88.3635 114.837 86.8837Q116.672 85.4038 118.542 83.9696Q120.412 82.5354 122.317 81.1477C146.926 62.9722 176.993 49.901 207.291 45.441C223.356 43.0763 239.467 43.2152 255.662 43.1362L328.365 43.4926L570.83 43.1138L730.409 43.0494L776.194 43.0802C789.692 43.1058 803.111 42.8209 816.506 44.8422Q818.535 45.1545 820.556 45.5097Q822.578 45.8648 824.591 46.2627Q826.605 46.6606 828.61 47.101Q830.614 47.5414 832.609 48.0242Q834.604 48.507 836.588 49.0318Q838.573 49.5567 840.545 50.1235Q842.518 50.6903 844.478 51.2987Q846.438 51.9071 848.385 52.5568Q850.332 53.2066 852.265 53.8974Q854.198 54.5882 856.116 55.3198Q858.033 56.0514 859.935 56.8235Q861.837 57.5955 863.722 58.4076Q865.607 59.2197 867.474 60.0715Q869.342 60.9234 871.191 61.8145Q873.04 62.7057 874.869 63.6358Q876.699 64.5659 878.509 65.5346Q880.318 66.5032 882.107 67.5099Q883.895 68.5167 885.662 69.561Q887.429 70.6054 889.174 71.6869Q890.918 72.7685 892.639 73.8867Q894.36 75.0049 896.057 76.1593Q897.755 77.3137 899.427 78.5038Q901.099 79.6939 902.746 80.9191Q904.393 82.1443 906.013 83.4041Q907.633 84.6639 909.227 85.9577Q910.82 87.2515 912.386 88.5788Q913.951 89.906 915.489 91.2661Q917.026 92.6262 918.534 94.0185Q920.042 95.4109 921.52 96.8348Q922.998 98.2588 924.446 99.7137Q925.894 101.169 927.311 102.654Q928.727 104.139 930.112 105.654C938.743 115.256 945.084 125.293 952.66 135.533C955.886 141.858 959.454 147.932 962.45 154.382Q965.73 161.575 968.447 168.998Q971.164 176.422 973.304 184.032Q975.443 191.642 976.991 199.394Q978.54 207.146 979.488 214.994C980.802 226.807 980.515 238.692 980.504 250.558L980.172 305L980.577 452.492L980.463 688.272L980.344 760.656C980.378 774.712 981.063 789.085 980.291 803.104C979.39 819.453 976.051 835.315 970.987 850.863C955.062 899.756 918.378 939.772 872.793 962.814C852.917 972.861 829.934 979.554 807.756 981.579C797.435 982.521 786.902 982.163 776.546 982.166L732.797 982.332L550.715 982.046L333.341 982.052L262.211 982.165C248.593 982.196 234.899 982.809 221.305 981.928C205.062 980.876 189.354 977.012 173.944 971.922C156.857 966.278 141.78 958.272 126.744 948.479Z"/>
	<path fill="#212E43" d="M201.223 168.151C210.314 167.391 219.9 167.958 229.04 167.986L280.259 168.039L444.262 167.936L696.877 167.958L777.68 167.956C791.415 167.931 805.347 167.306 819.059 167.821C825.515 168.063 831.388 169.502 837.031 172.715C845.398 177.479 852.374 186.176 854.852 195.525C857.264 204.629 855.97 239.722 855.962 251.309L855.672 383.748L855.658 636.589L855.919 755.962C855.899 775.656 856.389 795.508 855.747 815.185C855.487 823.133 854.45 829.607 850.239 836.462C844.112 846.435 834.798 852.167 823.628 854.903Q823.082 855.018 822.531 855.107C815.153 856.286 806.834 855.561 799.366 855.546L757.814 855.528L602.8 855.565L328.636 855.483L247.617 855.438C233.393 855.448 218.948 856.037 204.761 855.335Q203.422 855.277 202.091 855.122Q200.761 854.968 199.444 854.717Q198.128 854.466 196.833 854.121Q195.539 853.776 194.273 853.337Q193.007 852.899 191.775 852.37Q190.544 851.841 189.355 851.224Q188.165 850.608 187.024 849.906Q185.882 849.205 184.794 848.423C176.406 842.371 170.341 833.097 168.8 822.801C167.396 813.423 168.01 803.344 168.012 793.869L168.032 748.367L168.175 585.577L168.051 332.118L168.01 248.269C168.002 233.776 167.381 219.03 168.075 204.572C168.452 196.732 170.63 189.475 175.384 183.155C181.658 174.814 190.95 169.631 201.223 168.151Z"/>
	<path fill="#FDFDF9" d="M356.032 355.539L505.356 355.504C505.835 373.525 505.609 391.627 505.61 409.657L505.471 504.081L356.21 504.035C355.413 486.524 356.03 468.75 356.038 451.204L356.032 355.539Z"/>
	<path fill="#141412" d="M423.255 391.152C430.608 390.781 437.498 392.323 443.236 397.249C451.343 404.208 455.259 416.02 455.958 426.387C456.837 439.406 454.691 455.381 445.724 465.506C440.648 471.239 433.791 475.063 426.026 475.399C419.425 475.685 412.207 473.188 407.337 468.62C405.111 466.531 403.5 463.544 403.483 460.442C403.474 458.62 404.039 456.375 405.475 455.132C406.42 454.316 407.382 453.842 408.662 453.992C410.064 454.156 411.255 454.96 412.144 456.01C412.338 456.24 412.524 456.477 412.714 456.711C413.455 457.954 414.198 459.22 415.096 460.358C417.398 463.274 420.861 465.689 424.653 465.945C428.482 466.204 432.265 463.976 435.003 461.498C442.229 454.958 444.304 444.409 444.84 435.129C440.011 439.586 435.465 444.061 428.763 445.475C422.345 446.829 414.956 445.421 409.593 441.622C403.821 437.534 400.068 431.053 398.884 424.13C397.58 416.507 398.982 407.984 403.643 401.71C408.467 395.217 415.474 392.163 423.255 391.152Z"/>
	<path fill="#FDFDF9" d="M423.949 400.641C427.669 400.511 431.222 400.952 434.518 402.785C438.717 405.119 441.604 409.18 442.821 413.792C444.142 418.801 443.32 424.436 440.556 428.823C437.811 433.182 433.932 435.211 429.066 436.438C425.216 436.631 421.903 436.626 418.431 434.675C414.15 432.269 411.513 428.058 410.378 423.359C409.127 418.177 409.538 412.443 412.445 407.868C415.206 403.523 419.061 401.656 423.949 400.641Z"/>
	<path fill="#FDFDF9" d="M518.574 355.633C568.349 354.909 618.253 355.522 668.04 355.582C668.192 405.187 668.664 454.866 668.069 504.464Q593.401 504.857 518.733 504.451C517.719 486.841 518.507 468.714 518.499 451.05L518.574 355.633Z"/>
	<path fill="#141412" d="M604.268 392.006C606.245 391.887 607.983 392.053 609.463 393.476C610.824 394.786 611.24 396.714 611.466 398.515C612.182 404.249 611.703 410.523 611.693 416.32L611.835 446.462C615.736 446.369 620.248 445.761 623.555 448.31C624.806 449.274 625.09 450.228 625.269 451.735C624.875 452.762 624.628 453.332 623.824 454.133C620.808 457.137 615.607 456.751 611.724 456.77C611.674 463.418 613.351 473.11 610.365 479.174C609.626 480.675 608.861 481.394 607.233 481.917C605.299 481.79 603.687 481.157 602.326 479.718C599.258 476.475 599.925 470.841 599.942 466.75L599.93 456.537C593.199 456.382 568.755 457.57 564.422 454.641C563.316 453.061 562.789 451.954 563.148 449.93C564.143 444.32 598.591 396.192 604.268 392.006Z"/>
	<path fill="#FDFDF9" d="M599.868 408.852C601.219 414.365 599.986 439.343 599.896 446.482L575.923 446.514C575.824 445.696 597.5 412.806 599.868 408.852Z"/>
	<path fill="#FDFDF9" d="M482.451 682.743Q493.938 682.594 505.423 682.858L505.512 832.554L379.75 832.591L356.517 832.531C356.01 814.898 356.407 797.157 356.339 779.511Q356.004 731.231 356.417 682.953L482.451 682.743Z"/>
	<path fill="#FDFDF9" d="M518.565 682.98L668.09 682.9Q668.547 757.852 668.119 832.805L518.525 832.542L518.565 682.98Z"/>
	<path fill="#FDFDF9" d="M191.162 355.555L342.414 355.537C342.565 404.868 343.285 454.372 342.422 503.686Q266.876 504.202 191.329 503.878C190.069 483.889 190.894 463.443 190.935 443.396Q190.818 399.475 191.162 355.555Z"/>
	<path fill="#141412" d="M238.026 394.879C255.427 394.183 273.138 394.946 290.57 395.022C290.696 397.383 291.09 400.233 290.287 402.479C287.441 410.431 282.325 418.325 278.695 426.017C270.567 443.24 262.979 460.792 254.399 477.787L254.028 478.173C250.648 478.972 246.409 478.503 242.91 478.483C246.05 469.777 250.613 461.44 254.557 453.064Q265.842 428.539 278.026 404.449L237.892 404.486L238.026 394.879Z"/>
	<path fill="#FDFDF9" d="M685.718 355.739L832.914 355.661C832.879 371.94 834.213 501.343 832.19 504.423L830.625 504.678L681.671 504.583C680.96 470.737 681.722 436.746 681.754 402.884L681.761 372.606C681.75 367.483 681.16 361.512 682.007 356.497C683.106 355.471 684.257 355.788 685.718 355.739Z"/>
	<path fill="#FDFDF9" d="M681.982 682.953L832.723 682.886L833.003 775.003L833.123 800.472C833.149 805.447 833.533 810.845 832.688 815.759C831.957 820.008 829.576 823.44 826.771 826.584C823.706 829.301 820.291 831.461 816.199 832.18C810.898 833.111 805.007 832.689 799.623 832.666L774.579 832.566L681.755 832.541C681.236 814.852 681.699 797.014 681.686 779.311Q681.499 731.13 681.982 682.953Z"/>
	<path fill="#212E43" d="M746.426 714.159C752.801 713.299 759.728 714.145 765.347 717.37C772.578 721.521 777.078 728.773 779.192 736.68C783.058 751.143 781.521 772.23 773.758 785.276C769.863 791.821 763.756 796.689 756.282 798.496C749.455 800.146 741.012 799.258 735.011 795.469C728.657 791.458 725.774 785.611 724.193 778.531C727.612 778.287 731.076 778.275 734.504 778.167C734.884 778.207 735.478 778.494 735.844 778.629C736.607 780.087 737.391 781.649 738.391 782.957C740.97 786.329 745.503 789.795 749.841 790.234C752.53 790.506 754.995 789.333 757.035 787.671C765.826 780.508 767.661 768.52 768.713 757.994C764.237 762.241 759.802 765.782 753.643 767.198C747.252 768.668 739.534 767.952 733.983 764.353C728.222 760.617 724.744 753.979 723.479 747.353C721.988 739.552 723.705 731.071 728.333 724.59C732.805 718.328 739.015 715.344 746.426 714.159Z"/>
	<path fill="#FDFDF9" d="M748.231 724.07C751.217 723.725 754.134 723.81 756.93 725.019C761.402 726.952 764.598 730.793 766.274 735.313C767.949 739.83 768.143 745.07 766.026 749.476C763.699 754.322 759.847 756.452 755.034 758.189C751.348 758.619 747.967 758.844 744.476 757.281C740.496 755.499 737.713 752.053 736.362 747.95C734.722 742.967 735.115 737.091 737.564 732.434C739.923 727.948 743.521 725.594 748.231 724.07Z"/>
	<path fill="#FDFDF9" d="M191.585 682.954C241.736 682.125 292.227 682.958 342.424 682.944L342.397 778.973C342.391 796.786 342.643 814.641 342.256 832.45L214.575 832.577C207.445 832.579 201.336 832.172 196.063 826.655C193.44 823.911 191.875 820.514 191.349 816.767C190.631 811.646 190.988 806.174 191.005 800.999L191.036 777.021Q190.978 729.984 191.585 682.954Z"/>
	<path fill="#FDFDF9" d="M356.183 190.116L505.455 190.048L505.532 341.717L356.414 341.539L356.183 190.116Z"/>
	<path fill="#FDFDF9" d="M357.535 517.744L505.534 517.583L505.652 625.195L505.544 653.395C505.524 658.457 505.78 663.701 505.285 668.733L504.543 669.142L356.323 669.318L356.209 569.531C356.162 561.749 355.185 522.033 356.383 518.186L357.535 517.744Z"/>
	<path fill="#141412" d="M425.885 551.68C429.371 551.359 433.185 551.664 436.582 552.522C442.613 554.044 447.894 557.512 451.017 562.989C453.42 567.204 454.188 572.045 452.808 576.732C450.99 582.906 446.431 586.449 441.05 589.395C442.815 590.289 444.616 591.173 446.304 592.207C451.517 595.397 455.379 600.463 456.669 606.47Q456.795 607.048 456.892 607.631Q456.988 608.214 457.054 608.802Q457.12 609.389 457.155 609.98Q457.191 610.57 457.196 611.161Q457.201 611.752 457.175 612.343Q457.149 612.934 457.093 613.522Q457.037 614.111 456.95 614.696Q456.863 615.28 456.747 615.86Q456.63 616.44 456.483 617.013Q456.337 617.585 456.161 618.15Q455.985 618.714 455.78 619.269Q455.575 619.823 455.342 620.367Q455.108 620.91 454.847 621.44Q454.586 621.971 454.298 622.487Q454.009 623.003 453.695 623.504Q453.38 624.004 453.04 624.488C447.734 632.084 439.863 635.036 431.116 636.413C426.745 636.694 422.396 636.378 418.208 635.046C411.309 632.851 405.339 628.005 402.093 621.489Q401.845 620.998 401.621 620.495Q401.398 619.993 401.2 619.479Q401.003 618.966 400.831 618.443Q400.659 617.921 400.515 617.39Q400.37 616.859 400.251 616.322Q400.133 615.785 400.043 615.242Q399.952 614.7 399.889 614.153Q399.825 613.607 399.79 613.058Q399.754 612.509 399.746 611.959Q399.738 611.409 399.758 610.859Q399.778 610.31 399.825 609.761Q399.873 609.214 399.948 608.669Q400.023 608.124 400.126 607.583Q400.228 607.043 400.358 606.508Q400.487 605.974 400.644 605.446Q400.8 604.919 400.983 604.4C403.502 597.122 408.613 592.817 415.237 589.431C413.675 588.64 412.043 587.829 410.593 586.842C406.652 584.161 403.925 579.297 403.234 574.638C402.514 569.788 403.897 565.135 406.82 561.24C411.611 554.854 418.325 552.668 425.885 551.68Z"/>
	<path fill="#FDFDF9" d="M424.693 560.589C427.729 560.321 430.858 560.197 433.749 561.31C437.048 562.58 439.771 565.005 441.141 568.293Q441.383 568.867 441.565 569.463Q441.747 570.058 441.866 570.67Q441.985 571.281 442.04 571.902Q442.095 572.522 442.086 573.145Q442.077 573.768 442.004 574.386Q441.93 575.005 441.793 575.612Q441.656 576.22 441.457 576.81Q441.258 577.401 440.999 577.967C439.142 582.001 435.453 584.045 431.434 585.431C428.796 585.825 426.304 585.834 423.743 584.967Q423.07 584.74 422.425 584.443Q421.78 584.146 421.17 583.782Q420.56 583.419 419.991 582.993Q419.422 582.568 418.902 582.085Q418.381 581.602 417.914 581.067Q417.447 580.532 417.039 579.95Q416.631 579.369 416.287 578.748Q415.942 578.127 415.665 577.473C414.365 574.418 414.231 570.823 415.654 567.786C417.555 563.727 420.74 562.129 424.693 560.589Z"/>
	<path fill="#FDFDF9" d="M427.264 594.626C430.59 594.599 434.2 595.456 437.07 597.166C440.909 599.452 443.486 603.108 444.535 607.431C445.569 611.69 445.035 616.344 442.689 620.088C439.831 624.649 435.737 626.348 430.745 627.502C426.333 627.606 422.612 627.456 418.769 624.926C415.144 622.54 412.814 618.71 412.063 614.464C411.245 609.833 412.226 604.689 415.099 600.91C418.251 596.765 422.348 595.404 427.264 594.626Z"/>
	<path fill="#FDFDF9" d="M525.254 190.242C572.804 189.917 620.507 189.751 668.049 190.444L667.996 341.688L662.735 341.808L518.727 341.91C518.24 323.471 518.549 304.946 518.528 286.498L518.614 190.357L525.254 190.242Z"/>
	<path fill="#FDFDF9" d="M608.003 517.752Q638.152 517.614 668.299 517.918C668.589 540.235 668.283 562.594 668.259 584.914L668.142 669.114Q623.35 669.489 578.555 669.41L518.413 669.397L518.562 517.863C548.338 517.304 578.214 517.799 608.003 517.752Z"/>
	<path fill="#141412" d="M591.771 550.179C599.945 549.601 607.831 551.189 614.112 556.876C618.101 560.488 620.578 565.3 620.72 570.716C620.959 579.803 615.927 584.459 610.137 590.375Q612.246 591.478 614.255 592.754C619.306 595.984 622.828 601.528 623.997 607.37Q624.11 607.951 624.193 608.536Q624.277 609.122 624.33 609.711Q624.383 610.3 624.406 610.891Q624.43 611.482 624.422 612.074Q624.415 612.665 624.378 613.256Q624.341 613.846 624.274 614.434Q624.206 615.021 624.109 615.605Q624.012 616.188 623.885 616.766Q623.758 617.344 623.602 617.914Q623.446 618.485 623.26 619.047Q623.075 619.608 622.862 620.16Q622.648 620.712 622.407 621.252Q622.165 621.792 621.896 622.319Q621.628 622.845 621.332 623.358Q621.037 623.871 620.716 624.367Q620.395 624.864 620.049 625.344C615.703 631.4 608.826 634.853 601.57 635.898C592.395 637.22 583.329 635.965 575.836 630.186C572.144 627.338 568.378 623.07 567.907 618.227C567.698 616.082 568.189 613.713 569.713 612.109C570.586 611.191 571.772 610.648 573.051 610.712C579.527 611.035 580.117 619.304 583.435 623.328C584.505 624.077 585.586 624.819 586.75 625.416C591.283 627.741 596.835 628.274 601.647 626.497Q602.428 626.208 603.176 625.844Q603.925 625.479 604.634 625.043Q605.343 624.607 606.005 624.103Q606.668 623.599 607.277 623.032Q607.887 622.465 608.438 621.841Q608.989 621.217 609.476 620.542Q609.963 619.866 610.381 619.146Q610.799 618.427 611.144 617.669C612.87 613.895 613.065 609.579 611.423 605.741C605.751 592.489 594.912 598.106 590.081 595.443C588.648 594.653 587.584 593.487 587.147 591.89C586.905 591.007 586.988 589.971 587.524 589.22C589.217 586.845 594.581 587.657 597.309 587.142C601.42 586.366 605.531 584.062 607.79 580.453C609.856 577.152 609.823 573.155 608.832 569.5C607.843 565.853 605.738 563.163 602.399 561.37C599.125 559.611 593.007 558.304 589.441 559.69C581.968 562.595 583.121 565.736 579.778 571.453C578.955 572.859 577.798 573.739 576.189 574.065C574.292 574.45 572.14 573.937 570.58 572.801C569.387 571.932 568.664 570.756 568.5 569.287C568.215 566.744 571.097 561.611 572.58 559.713C577.253 553.736 584.473 550.991 591.771 550.179Z"/>
	<path fill="#FDFDF9" d="M681.863 190.392C703.023 189.627 724.469 190.322 745.667 190.355C767.511 190.389 789.455 189.791 811.28 190.269C817.7 190.41 823.509 190.886 828.151 195.919C830.485 198.45 831.99 201.356 832.495 204.768C833.413 210.961 833.047 217.467 833.05 223.714L833.089 250.486Q833.263 296.075 832.685 341.66C782.423 342.509 732.04 341.857 681.768 341.732L681.863 190.392Z"/>
	<path fill="#FDFDF9" d="M209.634 190.622C223.966 189.751 238.661 190.405 253.04 190.373L342.473 190.493L342.482 341.612L324.25 341.665C279.933 341.57 235.442 342.885 191.155 341.67C190.376 312.864 191.015 283.884 190.996 255.061L190.946 227.638C190.891 221.367 190.44 214.88 191.216 208.648C191.66 205.081 192.818 202.149 194.975 199.245C198.655 194.29 203.666 191.631 209.634 190.622Z"/>
	<path fill="#141412" d="M264.252 224.631C268.554 224.256 273.166 224.634 277.195 226.221C284.6 229.136 289.679 235.7 292.604 242.884C298.292 256.852 297.72 278.793 291.881 292.642C288.885 299.749 283.641 305.811 276.308 308.623C269.249 311.329 260.148 311.186 253.29 307.877C246.868 304.778 243.114 298.494 240.953 291.948C244.444 291.131 247.987 290.575 251.519 289.972L253.239 293.223C253.682 293.927 254.143 294.588 254.664 295.238C257.385 298.635 260.859 301.111 265.291 301.5C269.512 301.871 273.456 300.673 276.587 297.777C284.443 290.51 285.409 276.887 285.559 266.927Q284.477 268.723 283.311 270.466C280.191 275.102 275.714 278.503 270.144 279.488C263.517 280.659 256.023 279.455 250.487 275.543C244.808 271.53 241.534 265.094 240.464 258.333C239.207 250.385 240.625 241.401 245.51 234.858C250.21 228.563 256.748 225.841 264.252 224.631Z"/>
	<path fill="#FDFDF9" d="M265.618 233.577C268.428 233.415 271.106 234.025 273.627 235.283C277.677 237.304 280.468 241.074 281.869 245.314C283.682 250.8 283.131 257.133 280.326 262.189C277.755 266.825 274.181 269.131 269.229 270.603C265.459 270.808 262.392 270.703 259.086 268.679C254.875 266.103 252.43 261.479 251.367 256.775C250.131 251.306 250.684 245.24 253.914 240.528C256.846 236.252 260.741 234.607 265.618 233.577Z"/>
	<path fill="#FDFDF9" d="M682.658 518.218L833.015 518.383C833.731 554.673 833.125 591.095 833.017 627.397L832.821 656.126C832.782 660.097 833.359 664.85 832.479 668.679L831.592 669.133L681.626 669.125C681.287 635.271 681.778 601.403 681.805 567.547L681.808 535.005C681.801 530.086 681.25 524.656 681.82 519.795C681.972 518.499 681.698 518.989 682.658 518.218Z"/>
	<path fill="#FDFDF9" d="M212.074 517.745L293.316 517.511C309.645 517.499 326.186 517.113 342.49 517.92L342.442 669.146L321.258 669.189L236.98 669.28C221.683 669.268 206.337 669.498 191.046 669.058C190.593 651.814 190.999 634.45 191.003 617.196L190.992 517.897L212.074 517.745Z"/>
</svg>
